<svg height="24" viewBox="0 0 47 24" width="47" xmlns="http://www.w3.org/2000/svg"><path d="m51.1995325 43c.7084203-.1984508 1.4585124-.3011858 2.10824-.634915.3398305-.1742028.6555969-.7395642.6913994-1.1581615.0228902-.2718329-.4337386-.684049-.7559613-.8748426-.3703506-.2201464-.822871-.3069287-1.2501535-.3796728-1.6158086-.2762996-3.1294921-.8442135-4.5363549-1.754152-.6415107-.4147685-1.1826569-.1646312-1.3892551.6183243-.2294882.8722902.1385147 1.9072973.9232354 2.5728413 1.2255026 1.0388358 2.6417562 1.4382898 4.20885 1.6105783zm2.0514647-4c.6949418-.1501851 1.4815594-.1707427 2.0534119-.4933837.3929883-.2215658.5122311-.8548557.6923774-1.3225424.0333367-.0856569-.2000201-.3289224-.3609338-.386027-2.5457691-.8999684-5.1082067-1.7628188-7.6462828-2.6793475-.7096868-.2558286-1.1853757-.086799-1.6046487.398019-.6410902.7423597-.4840231 1.566379.4910751 2.2853258 1.8348001 1.3516657 3.9542443 2.0409182 6.3750009 2.1979558zm-3.9865358-10c-.4634566.5681571-1.0299697 1.0039169-1.2170203 1.55941-.2275584.6746506.4092476 1.125377.9376358 1.5110561.1447558.1064935.2966599.2055037.4515426.2987574 2.0772149 1.2554718 4.3450546 2.0487044 6.7266735 2.5512385.4015036.0851948.8316008.0892243 1.2450184.0702281 1.0549893-.0483538 1.6209067-.629175 1.5905259-1.6486342-.0327636-1.120772-.6058295-1.9076725-1.6977523-2.3002592-.320488-.1151281-.7035248-.2406177-1.0150772-.1738435-.7541595.1600281-1.4725768.4760547-2.2249492.6475955-1.6572446.3787715-3.0869308-.1772972-4.0722228-1.5237202-.1936034-.2647946-.3878024-.5301649-.7243744-.9918285zm26.1953501 10c.1809768-5.017069.3598972-10 .5401885-15h-4v15zm-21.4598115-16.7210707c-.8191662-.1080451-1.5281416-.3027703-2.2286408-.2765221-3.7761565.1385663-7.5571567.2460009-11.3218098.5548754-1.2708277.1043824-2.5652678.6299574-3.722272 1.2171852-1.0419698.5286271-.9226973 1.5828292.0920275 2.1847072 1.170324.6940519 2.4647641.9809512 3.7955308 1.0029264 3.0163239.0494444 6.0332532.0372359 9.0495771.0347942.2167491 0 .5128114-.060432.6369275-.2081546 1.2381338-1.476005 2.4484171-2.9770373 3.6986597-4.5098117zm16 14.9158146v-10.8846473c-1.575893-.0831855-2.9453266-.6299194-4.2276416-1.4219905-.7106735-.4382311-1.4177667-.8842985-2.1081522-1.3538748-3.0014167-2.0398542-5.6454082-2.1929638-8.8001776.4376283-1.3360183 1.1139629-2.355784 2.6378256-3.4214958 4.0507742-.7894382 1.0452444-.5030207 1.7589522.7023196 2.2399817 1.6343699.6534284 3.033042.0235089 4.3159537-.8951488 1.2948458-.9258912 2.5049597-1.972944 3.7610198-2.9747873.4081449.3297282.4206757.6829653.0608637 1.1591724-.6098306.8071409-1.1504436 1.6679304-1.730439 2.5208836 1.3658534 1.3315715 2.8230024 2.3038778 4.7599008 2.0935028.9523382-.1036805 1.9076599-.268846 2.8325497-.5165943.6008801-.1609459.8741701-.0048223 1.0167821.587724-1.8664873 1.4020983-3.9245164 1.990425-6.323263 1.4641861-.148579 2.3285923-1.702394 3.0392862-3.6601769 3.2761842-.1288879 1.04645-.2082494 2.1091754-1.1898261 2.7228195-.5167449.3224946-.6116207.7227497-.4135152 1.2893759.9356305 0 1.8724544.0259201 2.8074882-.0054252 2.0550455-.0681157 4.0677252-.4105025 5.8715587-1.4442939 1.8032369-1.0331885 3.6261649-1.9705328 5.7462511-2.3454706zm.3779824 3.8751647v-2.5866702c-1.0780245.3124919-2.0277127.5247158-2.9278997.869195-.743128.2841954-1.4410327.7012614-2.1358818 1.1011034-2.6962833 1.5526172-5.6376277 1.9069388-8.6694187 1.7999041-.6007358-.0209148-1.0493015.0811987-1.4312547.6219081-.5457345.7720027-1.393976 1.0561981-2.3100523 1.1060245-2.3833874.1297949-4.5932152-.4201416-6.6820404-1.6061345-1.7368171-.9860719-2.6565602-3.6490197-.9142429-5.1733404.1631704-.1420977.2077825-.6034539.1118359-.8341319-.7889624-1.8921754.0696682-3.4841618 1.4948116-4.2721581-.3458967-1.1103305-.1307807-2.1087052.88002-3.133531-1.6983163 0-3.1796832.0799684-4.6488276-.0202997-1.8333749-.1248737-3.6704165-.3180282-5.4762908-.643438-.8390746-.1513248-1.6573709-.6059144-2.40111-1.0611192-1.5742579-.9645419-1.6867049-2.6444935-.3122848-3.8963065 1.1770266-1.0715766 2.6510601-1.5507719 4.1580942-1.7543837 2.6956722-.364779 5.4084559-.6785011 8.1242953-.8064506 2.8832875-.1359463 5.7769642-.0184542 8.6663631-.0418296.5249563-.004306 1.0994138-.0412145 1.565091-.2534383 1.8895984-.8618133 3.6746944-.4841164 5.384622.4238325 1.3181966.7006462 2.5422799 1.5796835 3.8464205 2.3104716 1.0908581.6114507 2.2141058 1.2032169 3.6325268 1.0851097.0305563-.612681.0598903-1.2136742.092891-1.8829482 3.5090796.0855046 6.9711025.1703942 10.5162384.2571291.014667.3321765.0385008.616987.0385008.9011824.0018334 5.9484187-.0128336 11.8968375.0196107 17.844641.0042232.7510879-.2420601.9448575-.9393537 1.0008353-1.3841981.1094952-2.7653405.2928074-4.1360938.5185644-.5506236.0904258-.8824644.0190693-.9955225-.5591637-.1839486-.9380909-.7761287-1.1736901-1.6695934-1.1423179-.9276877.0326025-1.8614867-.1039589-2.8814542-.1722396z" fill-rule="evenodd" transform="matrix(-1 0 0 1 81.000054 -20)"/></svg>