<svg height="24" viewBox="0 0 47 24" width="47" xmlns="http://www.w3.org/2000/svg"><path d="m283.199586 31c.70842-.1984508 1.458512-.3011858 2.10824-.634915.33983-.1742028.655597-.7395642.691399-1.1581615.02289-.2718329-.433738-.684049-.755961-.8748426-.370351-.2201464-.822871-.3069287-1.250154-.3796728-1.615808-.2762996-3.129492-.8442135-4.536355-1.754152-.64151-.4147685-1.182656-.1646312-1.389255.6183243-.229488.8722902.138515 1.9072973.923236 2.5728413 1.225502 1.0388358 2.641756 1.4382898 4.20885 1.6105783zm2.051464-4c.694942-.1501851 1.48156-.1707427 2.053412-.4933837.392989-.2215658.512231-.8548557.692378-1.3225424.033336-.0856569-.20002-.3289224-.360934-.386027-2.545769-.8999684-5.108207-1.7628188-7.646283-2.6793475-.709687-.2558286-1.185376-.086799-1.604649.398019-.64109.7423597-.484023 1.566379.491076 2.2853258 1.8348 1.3516657 3.954244 2.0409182 6.375 2.1979558zm-3.986535-10c-.463457.5681571-1.02997 1.0039169-1.217021 1.55941-.227558.6746506.409248 1.125377.937636 1.5110561.144756.1064935.29666.2055037.451543.2987574 2.077215 1.2554718 4.345054 2.0487044 6.726673 2.5512385.401504.0851948.831601.0892243 1.245019.0702281 1.054989-.0483538 1.620906-.629175 1.590526-1.6486342-.032764-1.120772-.60583-1.9076725-1.697753-2.3002592-.320488-.1151281-.703525-.2406177-1.015077-.1738435-.754159.1600281-1.472577.4760547-2.224949.6475955-1.657245.3787715-3.086931-.1772972-4.072223-1.5237202-.193603-.2647946-.387802-.5301649-.724374-.9918285zm26.19535 10c.180977-5.017069.359897-10 .540188-15h-4v15zm-21.459812-16.7210707c-.819166-.1080451-1.528141-.3027703-2.22864-.2765221-3.776157.1385663-7.557157.2460009-11.32181.5548754-1.270828.1043824-2.565268.6299574-3.722272 1.2171852-1.04197.5286271-.922698 1.5828292.092027 2.1847072 1.170324.6940519 2.464764.9809512 3.795531 1.0029264 3.016324.0494444 6.033253.0372359 9.049577.0347942.216749 0 .512811-.060432.636928-.2081546 1.238133-1.476005 2.448417-2.9770373 3.698659-4.5098117zm16 14.9158146v-10.8846473c-1.575893-.0831855-2.945326-.6299194-4.227641-1.4219905-.710674-.4382311-1.417767-.8842985-2.108152-1.3538748-3.001417-2.03985415-5.645409-2.19296377-8.800178.4376283-1.336018 1.1139629-2.355784 2.6378256-3.421496 4.0507742-.789438 1.0452444-.503021 1.7589522.70232 2.2399817 1.63437.6534284 3.033042.0235089 4.315953-.8951488 1.294846-.9258912 2.50496-1.972944 3.76102-2.9747873.408145.3297282.420676.6829653.060864 1.1591724-.609831.8071409-1.150444 1.6679304-1.730439 2.5208836 1.365853 1.3315715 2.823002 2.3038778 4.759901 2.0935028.952338-.1036805 1.90766-.268846 2.832549-.5165943.60088-.1609459.87417-.0048223 1.016783.587724-1.866488 1.4020983-3.924517 1.990425-6.323263 1.4641861-.14858 2.3285923-1.702394 3.0392862-3.660177 3.2761842-.128888 1.04645-.20825 2.1091754-1.189826 2.7228195-.516745.3224946-.611621.7227497-.413516 1.2893759.935631 0 1.872455.0259201 2.807488-.0054252 2.055046-.0681157 4.067726-.4105025 5.871559-1.4442939 1.803237-1.0331885 3.626165-1.9705328 5.746251-2.3454706zm.377983 3.8751647v-2.5866702c-1.078025.3124919-2.027713.5247158-2.9279.869195-.743128.2841954-1.441033.7012614-2.135882 1.1011034-2.696283 1.5526172-5.637628 1.9069388-8.669419 1.7999041-.600735-.0209148-1.049301.0811987-1.431254.6219081-.545735.7720027-1.393976 1.0561981-2.310053 1.1060245-2.383387.1297949-4.593215-.4201416-6.68204-1.6061345-1.736817-.9860719-2.65656-3.6490197-.914243-5.1733404.163171-.1420977.207783-.6034539.111836-.8341319-.788962-1.8921754.069668-3.4841618 1.494812-4.2721581-.345897-1.1103305-.130781-2.1087052.88002-3.133531-1.698317 0-3.179684.0799684-4.648828-.0202997-1.833375-.1248737-3.670416-.3180282-5.476291-.643438-.839074-.1513248-1.657371-.6059144-2.40111-1.0611192-1.574258-.9645419-1.686705-2.6444935-.312285-3.8963065 1.177027-1.0715766 2.651061-1.55077187 4.158095-1.75438372 2.695672-.36477893 5.408456-.67850112 8.124295-.80645056 2.883288-.13594628 5.776964-.01845425 8.666363-.04182963.524956-.00430599 1.099414-.04121448 1.565091-.25343831 1.889598-.86181331 3.674694-.4841164 5.384622.42383252 1.318197.70064622 2.54228 1.5796835 3.846421 2.3104716 1.090858.6114507 2.214105 1.2032169 3.632526 1.0851097.030557-.612681.059891-1.2136742.092891-1.8829482 3.50908.0855046 6.971103.1703942 10.516239.2571291.014667.3321765.038501.616987.038501.9011824.001833 5.9484187-.012834 11.8968375.01961 17.844641.004224.7510879-.24206.9448575-.939353 1.0008353-1.384198.1094952-2.765341.2928074-4.136094.5185644-.550624.0904258-.882465.0190693-.995523-.5591637-.183948-.9380909-.776128-1.1736901-1.669593-1.1423179-.927688.0326025-1.861487-.1039589-2.881454-.1722396z" fill-rule="evenodd" transform="translate(-266 -8)"/></svg>