<svg height="18" viewBox="0 0 35 18" width="35" xmlns="http://www.w3.org/2000/svg"><path d="m322.899635 1524c.531314-.15876 1.093883-.24095 1.581178-.50793.254873-.13936.491697-.59165.518549-.92653.017168-.21747-.325304-.54724-.56697-.69988-.277763-.17611-.617153-.24554-.937614-.30373-1.211856-.22104-2.347117-.67537-3.402263-1.40333-.481132-.33181-.886991-.1317-1.04194.49466-.172116.69784.103886 1.52584.692426 2.05828.919126.83107 1.981315 1.15063 3.156634 1.28846zm1.176047-3c.486459-.12015 1.037091-.13659 1.437387-.39471.275091-.17725.358561-.68388.484663-1.05803.023336-.06853-.140014-.26314-.252653-.30882-1.782036-.71998-3.575741-1.41026-5.352392-2.14348-.49678-.20466-.829762-.06944-1.123253.31841-.448762.59389-.338815 1.25311.343752 1.82827 1.284359 1.08133 2.767968 1.63273 4.462496 1.75836zm-2.156087-7c-.337059.47346-.749068.8366-.885105 1.29951-.165497.56221.297634.93781.681916 1.25921.105277.08875.215753.17125.328395.24897 1.5107 1.04622 3.160036 1.70725 4.89212 2.12603.292002.07099.6048.07435.905467.05852.767264-.04029 1.17884-.52431 1.156745-1.37386-.023828-.93398-.440603-1.58973-1.234728-1.91688-.233082-.09594-.511653-.20052-.738237-.14487-.548479.13335-1.070964.39671-1.618143.53966-1.205267.31564-2.245038-.14775-2.961613-1.26977-.140802-.22066-.282038-.4418-.526817-.82652zm18.675229 7c.135732-3.67918.269923-7.33333.405144-11h-3v11zm-15.594841-12.77686c-.591619-.08643-1.103657-.24221-1.609572-.22121-2.727221.11085-5.45794.1968-8.176853.4439-.917819.0835-1.852692.50396-2.688305.97374-.752533.42291-.666392 1.26627.066464 1.74777.845233.55524 1.780106.78476 2.741214.80234 2.178454.03956 4.357344.02979 6.535798.02784.156541 0 .370363-.04835.460003-.16653.894206-1.1808 1.768299-2.38163 2.671251-3.60785zm11.999986 11.97299v-8.02027c-1.161183-.06129-2.170238-.46415-3.1151-1.04778-.523654-.32291-1.044669-.65159-1.553374-.99759-2.211568-1.50305-4.15977-1.61587-6.484334.32246-.984433.82081-1.735839 1.94366-2.521099 2.98478-.581691.77018-.370647 1.29607.517498 1.65051 1.204271.48148 2.23487.01733 3.180173-.65958.954095-.68224 1.845757-1.45375 2.771274-2.19195.300738.24296.309971.50324.044847.85413-.449348.59473-.847694 1.229-1.275059 1.85749 1.006417.98116 2.080105 1.6976 3.507292 1.54258.701722-.07639 1.405642-.19809 2.087139-.38065.442753-.11859.644125-.00355.749207.43306-1.375305 1.03313-2.891746 1.46663-4.659241 1.07888-.109479 1.7158-1.254394 2.23947-2.696969 2.41403-.09497.77107-.153447 1.55413-.876713 2.00629-.380759.23762-.450668.53255-.304696.95006.689412 0 1.379702.0191 2.068674-.00399 1.514242-.0502 2.997267-.30248 4.326406-1.06422 1.3287-.7613 2.671908-1.45197 4.234075-1.72824zm.089987 2.6063v-1.94c-.802783.23437-1.509997.39354-2.180348.6519-.553393.21314-1.073108.52594-1.590549.82582-2.007868 1.16447-4.198228 1.43021-6.455942 1.34993-.447356-.01569-.781394.0609-1.065827.46643-.406398.579-1.038066.79215-1.72025.82952-1.774861.09735-3.420476-.31511-4.975982-1.2046-1.293373-.73955-1.978287-2.73677-.680818-3.88001.121509-.10657.154731-.45259.083282-.6256-.587525-1.41913.05188-2.61312 1.113156-3.20411-.257582-.83275-.09739-1.58153.655333-2.35015-1.264702 0-2.367846.05997-3.461889-.01523-1.365277-.09365-2.733285-.23852-4.078084-.48258-.624842-.11349-1.234211-.45443-1.788059-.79583-1.172318-.72341-1.256055-1.98337-.232552-2.92223.876508-.80369 1.974192-1.16308 3.09645-1.31579 2.007413-.27359 4.027569-.50888 6.05-.60484 2.147127-.10196 4.30199-.01384 6.453667-.03137.390925-.00323.818712-.03091 1.165492-.19008 1.407147-.64636 2.736472-.36309 4.009821.31787.981634.52549 1.893185 1.18477 2.864352 1.73286.81234.45859 1.648791.90241 2.70507.81383.022755-.45951.044599-.91026.069174-1.41221 2.613142.06413 5.191241.12779 7.831233.19285.010922.24913.028671.46274.028671.67588.001365 4.46132-.009557 8.92263.014603 13.38348.003145.56332-.180257.70865-.699518.75063-1.030784.08212-2.059293.2196-3.080066.38892-.410038.06782-.657154.0143-.741346-.41937-.136983-.70357-.577967-.88027-1.243313-.85674-.69083.02445-1.386211-.07797-2.145761-.12918z" fill-rule="evenodd" transform="matrix(-1 0 0 1 345 -1507)"/></svg>