<svg height="24" viewBox="0 0 32 24" width="32" xmlns="http://www.w3.org/2000/svg"><path d="m1.70573828.00811647c-1.10456948.17673113-1.85673109 1.21543051-1.67999997 2.31999999.17673112 1.10456949 1.21543048 1.85673111 2.31999997 1.68000001h6l.36 1 1.64000002 5.00000003 1.64 5c.16.52.84 1 1.36 1h14c.56 0 1.2-.48 1.36-1l3.24-10.00000003c.16-.52-.08-1-.64-1h-17.76l-1.52-2.88c-.3300771-.67396607-1.0096687-1.10643342-1.76-1.12h-8.00000002c-.11975601-.01082196-.24024399-.01082196-.36 0-.07992787-.00480433-.16007213-.00480433-.24 0zm12.64000002 20.00000003c-1.12 0-2 .88-2 2s.88 2 2 2 2-.88 2-2-.88-2-2-2zm12 0c-1.12 0-2 .88-2 2s.88 2 2 2 2-.88 2-2-.88-2-2-2z" fill="#ee0a0d"/></svg>